<svg width="48" height="48" viewBox="0 0 48 48" fill="none" xmlns="http://www.w3.org/2000/svg">
<g id="Outline / Electronic, Devices / Laptop ">
<g id="Vector">
<path fill-rule="evenodd" clip-rule="evenodd" d="M16.6019 6.5H31.3981C33.1951 6.49994 34.6935 6.49989 35.8831 6.65983C37.1387 6.82864 38.2723 7.19998 39.1832 8.11092C40.0942 9.02186 40.4655 10.1555 40.6343 11.411C40.7942 12.6006 40.7942 14.0991 40.7941 15.896V30.464L43.8193 33.5864L43.827 33.5939L43.8412 33.608L43.8569 33.6239L43.868 33.6355L43.8878 33.6561L43.9091 33.6788L43.9176 33.688L43.9337 33.7059L43.9515 33.7262L43.9679 33.7456C43.9732 33.7519 43.9817 33.7623 43.9921 33.7755C44.7351 34.6373 45.3983 35.9241 45.4889 37.2102L45.4897 37.2177C45.492 37.2386 45.4934 37.2554 45.4941 37.265L45.4959 37.2903L45.4972 37.3173L45.4981 37.3413L45.4984 37.3538L45.4988 37.3849L45.499 37.4135L45.499 37.4296L45.4989 37.4518L45.4985 37.4719L45.4982 37.4814C45.4982 37.5025 45.4983 37.5247 45.4983 37.5479C45.4987 37.8095 45.4992 38.1859 45.4891 38.3468C45.3144 41.1112 43.1112 43.3144 40.3468 43.4891C40.1724 43.5001 39.978 43.5 39.7257 43.5H8.27435C8.022 43.5 7.82765 43.5001 7.65319 43.4891C4.88879 43.3144 2.68562 41.1112 2.51095 38.3468C2.50085 38.1869 2.50144 37.8138 2.50186 37.5528C2.5019 37.5278 2.50194 37.5039 2.50196 37.4813L2.50168 37.4719L2.50132 37.4518L2.50116 37.4296L2.50117 37.4135L2.50136 37.3849L2.50182 37.3538L2.50212 37.3413L2.50296 37.3173L2.50433 37.2903L2.50606 37.265C2.5068 37.2553 2.50818 37.2386 2.51044 37.2177L2.51127 37.2102C2.60188 35.9242 3.26483 34.6374 4.00791 33.7755C4.01832 33.7623 4.0269 33.7519 4.03216 33.7455L4.04855 33.7261L4.06631 33.7058L4.0824 33.688L4.09093 33.6788L4.11223 33.6561L4.13196 33.6355L4.14314 33.624L4.15877 33.608L4.17298 33.5939L4.18063 33.5865L7.20589 30.464L7.20589 15.896C7.20583 14.0991 7.20578 12.6006 7.36571 11.411C7.53452 10.1555 7.90586 9.02186 8.8168 8.11092C9.72774 7.19998 10.8613 6.82864 12.1169 6.65983C13.3065 6.49989 14.8049 6.49994 16.6019 6.5ZM9.34115 32.5714L6.31293 35.697C5.85724 36.205 5.52502 36.9505 5.502 37.4527C5.50198 37.4959 5.50194 37.5398 5.50189 37.5839C5.50178 37.6905 5.50167 37.7979 5.50199 37.8984C5.50223 37.9727 5.5027 38.0373 5.5035 38.0885C5.50411 38.1283 5.50478 38.1492 5.50501 38.1563C5.58441 39.4129 6.58582 40.4156 7.84236 40.495C7.9092 40.4993 8.00006 40.5 8.32137 40.5H39.6786C40 40.5 40.0908 40.4993 40.1577 40.495C41.4142 40.4156 42.4156 39.4142 42.495 38.1576C42.4946 38.1648 42.4956 38.147 42.4966 38.0881C42.4974 38.0369 42.4978 37.9723 42.4981 37.8979C42.4985 37.7948 42.4984 37.6837 42.4983 37.574C42.4982 37.5332 42.4982 37.4926 42.4982 37.4527C42.4752 36.9506 42.1429 36.2051 41.687 35.6969L38.6589 32.5714H9.34115ZM37.7941 29.5714V16C37.7941 14.072 37.7909 12.7769 37.6611 11.8108C37.537 10.8879 37.3225 10.4929 37.0619 10.2322C36.8013 9.9716 36.4063 9.75716 35.4833 9.63308C34.5173 9.50319 33.2222 9.5 31.2941 9.5H16.7059C14.7779 9.5 13.4827 9.50319 12.5167 9.63308C11.5938 9.75716 11.1988 9.9716 10.9381 10.2322C10.6775 10.4929 10.463 10.8879 10.339 11.8108C10.2091 12.7769 10.2059 14.072 10.2059 16V29.5714H37.7941ZM43.3395 36.0476C43.3546 36.0428 43.369 36.0379 43.3827 36.0329C43.3883 36.0299 43.394 36.0266 43.3998 36.0233C43.3797 36.0316 43.3596 36.0397 43.3395 36.0476ZM43.4325 36.0517C43.4444 36.0457 43.4561 36.0401 43.4673 36.0349C43.4725 36.0335 43.4778 36.032 43.4831 36.0306C43.4662 36.0375 43.4493 36.0446 43.4325 36.0517ZM4.56814 36.0518C4.55647 36.046 4.54509 36.0405 4.53405 36.0354C4.52901 36.0339 4.52386 36.0325 4.5186 36.0311C4.5352 36.0379 4.55173 36.0448 4.56814 36.0518ZM4.66194 36.0481C4.64121 36.0399 4.62047 36.0316 4.5998 36.023C4.60576 36.0265 4.61164 36.0298 4.61742 36.033C4.6315 36.0381 4.64639 36.0431 4.66194 36.0481ZM17.5 37C17.5 36.1716 18.1716 35.5 19 35.5H29C29.8284 35.5 30.5 36.1716 30.5 37C30.5 37.8284 29.8284 38.5 29 38.5H19C18.1716 38.5 17.5 37.8284 17.5 37Z" fill="white"/>
<path d="M25.5 13.5C25.5 14.3284 24.8284 15 24 15C23.1716 15 22.5 14.3284 22.5 13.5C22.5 12.6716 23.1716 12 24 12C24.8284 12 25.5 12.6716 25.5 13.5Z" fill="white"/>
</g>
</g>
</svg>
