<svg width="48" height="48" viewBox="0 0 48 48" fill="none" xmlns="http://www.w3.org/2000/svg">
<g id="Outline / Electronic, Devices / Monitor Smartphone">
<path id="Vector (Stroke)" fill-rule="evenodd" clip-rule="evenodd" d="M19.8872 2.5L31.0688 2.5C33.3451 2.49999 35.149 2.49998 36.601 2.62348C38.0861 2.7498 39.3403 3.01349 40.4783 3.62175C42.1353 4.50747 43.4925 5.86467 44.3783 7.52173C44.9865 8.65971 45.2502 9.91386 45.3765 11.399C45.5 12.851 45.5 14.6548 45.5 16.9311V17C45.5 17.8284 44.8284 18.5 44 18.5C43.1716 18.5 42.5 17.8284 42.5 17C42.5 14.6396 42.4987 12.9632 42.3873 11.6533C42.2775 10.362 42.0689 9.56523 41.7325 8.93592C41.1265 7.80214 40.1979 6.87353 39.0641 6.26751C38.4348 5.93114 37.638 5.72252 36.3467 5.61268C35.0368 5.50127 33.3605 5.5 31 5.5H20C16.1864 5.5 13.477 5.50319 11.4217 5.77952C9.40952 6.05005 8.25023 6.55739 7.40381 7.40381C6.55739 8.25023 6.05005 9.40952 5.77952 11.4217C5.50319 13.477 5.5 16.1864 5.5 20V22C5.5 22.9181 5.50033 23.7473 5.50741 24.5H22C22.8284 24.5 23.5 25.1716 23.5 26C23.5 26.8284 22.8284 27.5 22 27.5H5.61345C5.63848 27.8127 5.66902 28.1065 5.7063 28.3838C5.9036 29.8513 6.2645 30.6285 6.81802 31.182C7.37155 31.7355 8.14869 32.0964 9.61624 32.2937C11.1269 32.4968 13.1292 32.5 16 32.5H22C22.8284 32.5 23.5 33.1716 23.5 34V44C23.5 44.8284 22.8284 45.5 22 45.5H16C15.1716 45.5 14.5 44.8284 14.5 44C14.5 43.1716 15.1716 42.5 16 42.5H20.5V35.5H15.8903C13.1551 35.5 10.9504 35.5001 9.2165 35.267C7.41628 35.0249 5.90053 34.5071 4.6967 33.3033C3.49287 32.0995 2.97508 30.5837 2.73305 28.7835C2.6361 28.0624 2.57947 27.2599 2.5464 26.3717C2.51611 26.2528 2.5 26.1283 2.5 26C2.5 25.9036 2.50909 25.8094 2.52645 25.7181C2.49996 24.6353 2.49998 23.4348 2.5 22.1098L2.5 19.8872C2.49997 16.2116 2.49994 13.3004 2.80627 11.022C3.12153 8.67711 3.78576 6.77921 5.28249 5.28249C6.77921 3.78576 8.67711 3.12153 11.022 2.80627C13.3004 2.49994 16.2116 2.49997 19.8872 2.5ZM35.896 20.5H36.104C37.901 20.4999 39.3994 20.4999 40.589 20.6598C41.8446 20.8286 42.9781 21.2 43.8891 22.1109C44.8 23.0219 45.1714 24.1555 45.3402 25.411C45.5001 26.6006 45.5001 28.099 45.5 29.896V36.104C45.5001 37.901 45.5001 39.3994 45.3402 40.589C45.1714 41.8445 44.8 42.9781 43.8891 43.8891C42.9781 44.8 41.8446 45.1714 40.589 45.3402C39.3994 45.5001 37.901 45.5001 36.104 45.5H35.896C34.099 45.5001 32.6006 45.5001 31.411 45.3402C30.1555 45.1714 29.0219 44.8 28.1109 43.8891C27.2 42.9781 26.8286 41.8445 26.6598 40.589C26.4999 39.3994 26.4999 37.901 26.5 36.104V29.896C26.4999 28.099 26.4999 26.6006 26.6598 25.411C26.8286 24.1555 27.2 23.0219 28.1109 22.1109C29.0219 21.2 30.1555 20.8286 31.411 20.6598C32.6006 20.4999 34.0991 20.4999 35.896 20.5ZM31.8108 23.6331C30.8879 23.7572 30.4929 23.9716 30.2322 24.2322C29.9716 24.4929 29.7572 24.8879 29.6331 25.8108C29.5032 26.7769 29.5 28.072 29.5 30V36C29.5 37.928 29.5032 39.2231 29.6331 40.1892C29.7572 41.1121 29.9716 41.5071 30.2322 41.7678C30.4929 42.0284 30.8879 42.2428 31.8108 42.3669C32.7769 42.4968 34.072 42.5 36 42.5C37.928 42.5 39.2231 42.4968 40.1892 42.3669C41.1121 42.2428 41.5071 42.0284 41.7678 41.7678C42.0284 41.5071 42.2428 41.1121 42.3669 40.1892C42.4968 39.2231 42.5 37.928 42.5 36V30C42.5 28.072 42.4968 26.7769 42.3669 25.8108C42.2428 24.8879 42.0284 24.4929 41.7678 24.2322C41.5071 23.9716 41.1121 23.7572 40.1892 23.6331C39.2231 23.5032 37.928 23.5 36 23.5C34.072 23.5 32.7769 23.5032 31.8108 23.6331ZM32.5 40C32.5 39.1716 33.1716 38.5 34 38.5H38C38.8284 38.5 39.5 39.1716 39.5 40C39.5 40.8284 38.8284 41.5 38 41.5H34C33.1716 41.5 32.5 40.8284 32.5 40Z" fill="white"/>
</g>
</svg>
