<svg width="55" height="54" viewBox="0 0 55 54" fill="none" xmlns="http://www.w3.org/2000/svg">
<g id="Chat">
<path id="Stroke 11 (Stroke)" fill-rule="evenodd" clip-rule="evenodd" d="M34.8485 28.0322C34.8485 26.6515 35.9678 25.5322 37.3485 25.5322H37.371C38.7517 25.5322 39.871 26.6515 39.871 28.0322C39.871 29.4129 38.7517 30.5322 37.371 30.5322H37.3485C35.9678 30.5322 34.8485 29.4129 34.8485 28.0322Z" fill="white"/>
<path id="Stroke 13 (Stroke)" fill-rule="evenodd" clip-rule="evenodd" d="M24.826 28.0322C24.826 26.6515 25.9453 25.5322 27.326 25.5322H27.3485C28.7292 25.5322 29.8485 26.6515 29.8485 28.0322C29.8485 29.4129 28.7292 30.5322 27.3485 30.5322H27.326C25.9453 30.5322 24.826 29.4129 24.826 28.0322Z" fill="white"/>
<path id="Stroke 15 (Stroke)" fill-rule="evenodd" clip-rule="evenodd" d="M14.8035 28.0322C14.8035 26.6515 15.9228 25.5322 17.3035 25.5322H17.326C18.7067 25.5322 19.826 26.6515 19.826 28.0322C19.826 29.4129 18.7067 30.5322 17.326 30.5322H17.3035C15.9228 30.5322 14.8035 29.4129 14.8035 28.0322Z" fill="white"/>
<path id="Stroke 4 (Stroke)" fill-rule="evenodd" clip-rule="evenodd" d="M43.8515 10.6433C34.8306 1.6189 20.1725 1.6189 11.1516 10.6433L11.1512 10.6437C4.08649 17.7071 2.55227 28.1773 6.51741 36.7459C6.53073 36.7747 6.54331 36.8038 6.55515 36.8332C6.78557 37.4057 6.7804 38.0545 6.77002 38.4215C6.757 38.8822 6.70603 39.413 6.64312 39.953C6.58364 40.4635 6.5081 41.026 6.43131 41.5978L6.41535 41.7166C6.33218 42.3362 6.2475 42.9723 6.17359 43.6092C6.0237 44.9011 5.92956 46.1075 5.97144 47.0725C5.99231 47.5534 6.04489 47.9098 6.11202 48.154C6.13463 48.2363 6.15535 48.2929 6.17062 48.3294C6.20714 48.3447 6.26379 48.3654 6.34609 48.388C6.59042 48.455 6.94683 48.5076 7.42775 48.5284C8.39282 48.5702 9.59917 48.4761 10.8909 48.3263C11.5278 48.2525 12.1638 48.1679 12.7833 48.0848L12.9014 48.069C13.4733 47.9922 14.036 47.9167 14.5467 47.8573C15.0867 47.7945 15.6174 47.7436 16.0781 47.7307C16.445 47.7203 17.0937 47.7153 17.6661 47.9457C17.6953 47.9575 17.7242 47.97 17.7528 47.9832C26.3232 51.9468 36.7894 50.4144 43.8515 43.3491L43.8517 43.3489C52.8738 34.3255 52.8917 19.6824 43.8518 10.6437L43.8515 10.6433ZM46.5033 7.99184C36.0178 -2.49739 18.9848 -2.49728 8.49942 7.99218C0.339325 16.151 -1.46381 28.212 3.02205 38.1196C3.02339 38.1635 3.024 38.2276 3.02152 38.3155C3.01326 38.6078 2.97792 39.0074 2.91831 39.5191C2.8628 39.9955 2.79147 40.5268 2.71322 41.1095L2.69868 41.2178C2.61571 41.8359 2.52684 42.5026 2.44859 43.177C2.29417 44.5078 2.16957 45.9587 2.22497 47.2351C2.25273 47.875 2.3278 48.5355 2.49612 49.1479C2.6606 49.7463 2.95157 50.4372 3.50744 50.9932L3.50831 50.994C4.06434 51.5494 4.75519 51.84 5.35334 52.0042C5.96553 52.1722 6.62581 52.2472 7.26551 52.2749C8.54166 52.3301 9.99218 52.2056 11.3228 52.0514C11.997 51.9732 12.6636 51.8844 13.2817 51.8015L13.389 51.7871C13.972 51.7089 14.5035 51.6376 14.9801 51.5822C15.4917 51.5227 15.8912 51.4874 16.1835 51.4792C16.2715 51.4767 16.3357 51.4773 16.3795 51.4787C26.288 55.9625 38.3453 54.1622 46.5035 46.0003C56.9877 35.5147 57.01 18.4972 46.5033 7.99184Z" fill="white"/>
</g>
</svg>
