<svg width="48" height="48" viewBox="0 0 48 48" fill="none" xmlns="http://www.w3.org/2000/svg">
<g id="Outline / Notes / Clipboard Check">
<path id="Vector" fill-rule="evenodd" clip-rule="evenodd" d="M14.5256 6.51743C14.7663 4.25907 16.6777 2.5 19 2.5H29C31.3223 2.5 33.2337 4.25907 33.4744 6.51743C35.0007 6.54849 36.3205 6.62743 37.4473 6.83442C38.9633 7.11288 40.2534 7.64336 41.3033 8.69322C42.5071 9.89706 43.0249 11.4128 43.267 13.213C43.5001 14.947 43.5 17.1516 43.5 19.8868V32.1063C43.5 34.8414 43.5001 37.0461 43.267 38.78C43.0249 40.5802 42.5071 42.096 41.3033 43.2998C40.0995 44.5037 38.5837 45.0214 36.7835 45.2635C35.0496 45.4966 32.8449 45.4966 30.1097 45.4965H17.8903C15.1551 45.4966 12.9504 45.4966 11.2165 45.2635C9.41628 45.0214 7.90053 44.5037 6.6967 43.2998C5.49287 42.096 4.97508 40.5802 4.73305 38.78C4.49993 37.0461 4.49996 34.8415 4.5 32.1063V19.8868C4.49996 17.1516 4.49993 14.947 4.73305 13.213C4.97508 11.4128 5.49287 9.89706 6.6967 8.69322C7.74656 7.64336 9.03671 7.11288 10.5527 6.83442C11.6795 6.62743 12.9993 6.54849 14.5256 6.51743ZM14.5295 9.51826C13.0934 9.54894 11.9866 9.62121 11.0947 9.78505C9.96107 9.99328 9.30493 10.3276 8.81802 10.8145C8.2645 11.3681 7.9036 12.1452 7.7063 13.6128C7.50319 15.1235 7.5 17.1257 7.5 19.9965V31.9965C7.5 34.8674 7.50319 36.8696 7.7063 38.3803C7.9036 39.8478 8.2645 40.625 8.81802 41.1785C9.37155 41.732 10.1487 42.0929 11.6162 42.2902C13.1269 42.4933 15.1292 42.4965 18 42.4965H30C32.8708 42.4965 34.8731 42.4933 36.3838 42.2902C37.8513 42.0929 38.6285 41.732 39.182 41.1785C39.7355 40.625 40.0964 39.8478 40.2937 38.3803C40.4968 36.8696 40.5 34.8674 40.5 31.9965V19.9965C40.5 17.1257 40.4968 15.1235 40.2937 13.6128C40.0964 12.1452 39.7355 11.3681 39.182 10.8145C38.6951 10.3276 38.0389 9.99328 36.9053 9.78505C36.0134 9.62121 34.9066 9.54894 33.4705 9.51826C33.2135 11.7594 31.31 13.5 29 13.5H19C16.69 13.5 14.7865 11.7594 14.5295 9.51826ZM19 5.5C18.1716 5.5 17.5 6.17157 17.5 7V9C17.5 9.82843 18.1716 10.5 19 10.5H29C29.8284 10.5 30.5 9.82843 30.5 9V7C30.5 6.17157 29.8284 5.5 29 5.5H19ZM31.0966 20.9765C31.6618 21.5821 31.6291 22.5313 31.0235 23.0966L22.4521 31.0966C21.8757 31.6345 20.9814 31.6345 20.4051 31.0966L16.9765 27.8966C16.3709 27.3313 16.3382 26.3821 16.9034 25.7765C17.4687 25.1709 18.4179 25.1382 19.0235 25.7034L21.4286 27.9482L28.9765 20.9034C29.5822 20.3382 30.5313 20.3709 31.0966 20.9765Z" fill="white"/>
</g>
</svg>
